# This file uses centimeters as units for non-parametric coordinates.

mtllib LAMPTEXT_EXP.mtl
g default
v 0.707107 -0.100179 -0.707107
v 0.000000 -0.100179 -1.000000
v -0.707107 -0.100179 -0.707107
v -1.000000 -0.100179 0.000000
v -0.707107 -0.100179 0.707107
v 0.000000 -0.100179 1.000000
v 0.707107 -0.100179 0.707107
v 1.000000 -0.100179 0.000000
v 0.707107 8.517034 -0.707107
v 0.000000 8.517034 -1.000000
v -0.707107 8.517034 -0.707107
v -1.000000 8.517034 0.000000
v -0.707107 8.517034 0.707107
v 0.000000 8.517034 1.000000
v 0.707107 8.517034 0.707107
v 1.000000 8.517034 0.000000
v 0.000000 -0.100179 0.000000
v 0.000000 8.517034 0.000000
v -0.630121 7.374878 0.000000
v -0.446336 7.374878 -0.516050
v 0.000000 7.374878 -0.729805
v 0.446336 7.374878 -0.516050
v 0.630121 7.374878 0.000000
v 0.446336 7.374878 0.516050
v 0.000000 7.374878 0.729805
v -0.446336 7.374878 0.516050
v -1.373143 0.649307 -1.411914
v -0.000000 0.649307 -1.996746
v 1.373143 0.649307 -1.411914
v 1.941696 0.649307 -0.000000
v 1.373143 0.649307 1.411914
v -0.000000 0.649307 1.996747
v -1.373143 0.649307 1.411914
v -1.941696 0.649307 -0.000000
vt 0.418295 0.290822
vt 0.396932 0.269073
vt 0.415833 0.223967
vt 0.463397 0.270831
vt 0.366249 0.269564
vt 0.348636 0.223956
vt 0.345464 0.291145
vt 0.299473 0.272359
vt 0.344730 0.320916
vt 0.299627 0.340907
vt 0.366093 0.342664
vt 0.347191 0.387771
vt 0.396775 0.342174
vt 0.414389 0.387781
vt 0.417561 0.320593
vt 0.463552 0.339378
vt 0.381512 0.305869
vt 0.421187 0.517493
vt 0.486865 0.479231
vt 0.639897 0.792619
vt 0.618023 0.805139
vt 0.861698 0.443053
vt 0.770464 0.779890
vt 0.785620 0.428184
vt 0.743123 0.774341
vt 0.709700 0.424468
vt 0.717960 0.772916
vt 0.634042 0.431777
vt 0.692892 0.775532
vt 0.558754 0.450234
vt 0.665845 0.782370
vt 0.934880 0.468611
vt 1.002297 0.503719
vt 0.819310 0.800368
vt 0.796868 0.788898
vt 0.635027 0.022458
vt 0.658351 0.037301
vt 0.631321 0.091528
vt 0.599024 0.070340
vt 0.617176 0.004989
vt 0.571742 0.042995
vt 0.760625 0.042483
vt 0.782035 0.099165
vt 0.733885 0.049506
vt 0.744542 0.108459
vt 0.708939 0.050729
vt 0.705941 0.109887
vt 0.684244 0.046991
vt 0.667682 0.104564
vt 0.785331 0.030075
vt 0.804856 0.014500
vt 0.846215 0.056904
vt 0.816309 0.081352
vn 0.246607 -0.773033 -0.584470
vn 0.246607 -0.773033 -0.584470
vn 0.400344 0.033921 -0.915737
vn 0.400361 0.028722 -0.915908
vn -0.246607 -0.773033 -0.584469
vn -0.246607 -0.773033 -0.584469
vn -0.400361 0.028722 -0.915907
vn -0.400344 0.033921 -0.915737
vn -0.601688 -0.760356 -0.244605
vn -0.601688 -0.760356 -0.244605
vn -0.930148 0.044548 -0.364472
vn -0.929952 0.049446 -0.364340
vn -0.601688 -0.760356 0.244605
vn -0.601688 -0.760356 0.244605
vn -0.929952 0.049446 0.364340
vn -0.930148 0.044548 0.364472
vn -0.246607 -0.773033 0.584469
vn -0.246607 -0.773033 0.584469
vn -0.400345 0.033921 0.915737
vn -0.400361 0.028722 0.915907
vn 0.246607 -0.773033 0.584469
vn 0.246607 -0.773033 0.584469
vn 0.400361 0.028722 0.915907
vn 0.400344 0.033921 0.915737
vn 0.601688 -0.760356 0.244605
vn 0.601688 -0.760355 0.244605
vn 0.930148 0.044548 0.364472
vn 0.929952 0.049446 0.364340
vn 0.601688 -0.760356 -0.244605
vn 0.601688 -0.760356 -0.244605
vn 0.929952 0.049446 -0.364340
vn 0.930148 0.044548 -0.364472
vn 0.000000 -1.000000 0.000000
vn 0.000000 -1.000000 0.000000
vn 0.000000 -1.000000 0.000000
vn 0.000000 -1.000000 0.000000
vn 0.000000 -1.000000 0.000000
vn 0.000000 -1.000000 0.000000
vn 0.000000 -1.000000 0.000000
vn 0.000000 -1.000000 0.000000
vn 0.000000 -1.000000 0.000000
vn 0.000000 1.000000 0.000000
vn 0.000000 1.000000 0.000000
vn 0.000000 1.000000 -0.000000
vn 0.000000 1.000000 -0.000000
vn 0.000000 1.000000 -0.000000
vn 0.000000 1.000000 0.000000
vn 0.000000 1.000000 0.000000
vn 0.000000 1.000000 0.000000
vn 0.000000 1.000000 0.000000
vn -0.923248 0.133597 -0.360229
vn -0.923529 0.131348 -0.360336
vn -0.895447 -0.276401 -0.348966
vn -0.895447 -0.276401 -0.348966
vn -0.398327 0.133554 -0.907468
vn -0.398445 0.131382 -0.907733
vn -0.391862 -0.224872 -0.892119
vn -0.391862 -0.224872 -0.892119
vn 0.398445 0.131382 -0.907733
vn 0.398327 0.133554 -0.907468
vn 0.391862 -0.224872 -0.892119
vn 0.391862 -0.224872 -0.892119
vn 0.923529 0.131348 -0.360336
vn 0.923248 0.133597 -0.360229
vn 0.895447 -0.276401 -0.348966
vn 0.895447 -0.276401 -0.348966
vn 0.923248 0.133597 0.360229
vn 0.923529 0.131348 0.360336
vn 0.895447 -0.276401 0.348966
vn 0.895447 -0.276401 0.348966
vn 0.398327 0.133554 0.907468
vn 0.398445 0.131382 0.907733
vn 0.391862 -0.224872 0.892119
vn 0.391862 -0.224872 0.892119
vn -0.398445 0.131382 0.907733
vn -0.398327 0.133554 0.907468
vn -0.391862 -0.224872 0.892119
vn -0.391862 -0.224872 0.892119
vn -0.923529 0.131348 0.360336
vn -0.923248 0.133597 0.360229
vn -0.895447 -0.276401 0.348966
vn -0.895447 -0.276401 0.348966
s 1
g Lamp_remodel:pCylinder1
usemtl lambert2SG
f 1/1/1 2/2/2 28/3/3 29/4/4
s 2
f 2/2/5 3/5/6 27/6/7 28/3/8
s 3
f 3/5/9 4/7/10 34/8/11 27/6/12
s 4
f 4/7/13 5/9/14 33/10/15 34/8/16
s 5
f 5/9/17 6/11/18 32/12/19 33/10/20
s 6
f 6/11/21 7/13/22 31/14/23 32/12/24
s 7
f 7/13/25 8/15/26 30/16/27 31/14/28
s 8
f 8/15/29 1/1/30 29/4/31 30/16/32
s 9
f 2/2/33 1/1/34 17/17/35
f 3/5/36 2/2/33 17/17/35
f 4/7/37 3/5/36 17/17/35
f 5/9/38 4/7/37 17/17/35
f 6/11/39 5/9/38 17/17/35
f 7/13/40 6/11/39 17/17/35
f 8/15/41 7/13/40 17/17/35
f 1/1/34 8/15/41 17/17/35
s 10
f 9//42 10//43 18//44
f 10//43 11//45 18//44
f 11//45 12//46 18//44
f 12//46 13//47 18//44
f 13//47 14//48 18//44
f 14//48 15//49 18//44
f 15//49 16//50 18//44
f 16//50 9//42 18//44
s 3
f 20/36/51 19/37/52 12/38/53 11/39/54
s 2
f 21/40/55 20/36/56 11/39/57 10/41/58
s 1
f 22/50/59 21/51/60 10/52/61 9/53/62
s 8
f 23/42/63 22/50/64 9/53/65 16/43/66
s 7
f 24/44/67 23/42/68 16/43/69 15/45/70
s 6
f 25/46/71 24/44/72 15/45/73 14/47/74
s 5
f 26/48/75 25/46/76 14/47/77 13/49/78
s 4
f 19/37/79 26/48/80 13/49/81 12/38/82
s 2
f 28/18/8 27/19/7 20/20/56 21/21/55
s 1
f 29/32/4 28/33/3 21/34/60 22/35/59
s 8
f 30/22/32 29/32/31 22/35/64 23/23/63
s 7
f 31/24/28 30/22/27 23/23/68 24/25/67
s 6
f 32/26/24 31/24/23 24/25/72 25/27/71
s 5
f 33/28/20 32/26/19 25/27/76 26/29/75
s 4
f 34/30/16 33/28/15 26/29/80 19/31/79
s 3
f 27/19/12 34/30/11 19/31/52 20/20/51
g default
v 2.269076 8.710810 -0.689121
v 1.930192 8.710810 -1.310786
v 1.402366 8.710810 -1.804142
v 0.737267 8.710810 -2.120896
v 0.000000 8.710810 -2.230042
v -0.737267 8.710810 -2.120896
v -1.402366 8.710810 -1.804141
v -1.930191 8.710810 -1.310785
v -2.269076 8.710810 -0.689121
v -2.385847 8.710810 0.000000
v -2.269076 8.710810 0.689121
v -1.930191 8.710810 1.310785
v -1.402366 8.710810 1.804141
v -0.737267 8.710810 2.120895
v -0.000000 8.710810 2.230041
v 0.737267 8.710810 2.120895
v 1.402365 8.710810 1.804141
v 1.930190 8.710810 1.310785
v 2.269075 8.710810 0.689120
v 2.385847 8.710810 0.000000
v 2.269076 12.785748 -0.689121
v 1.930192 12.785748 -1.310786
v 1.402366 12.785748 -1.804142
v 0.737267 12.785748 -2.120896
v 0.000000 12.785748 -2.230042
v -0.737267 12.785748 -2.120896
v -1.402366 12.785748 -1.804141
v -1.930191 12.785748 -1.310785
v -2.269076 12.785748 -0.689121
v -2.385847 12.785748 0.000000
v -2.269076 12.785748 0.689121
v -1.930191 12.785748 1.310785
v -1.402366 12.785748 1.804141
v -0.737267 12.785748 2.120895
v -0.000000 12.785748 2.230041
v 0.737267 12.785748 2.120895
v 1.402365 12.785748 1.804141
v 1.930190 12.785748 1.310785
v 2.269075 12.785748 0.689120
v 2.385847 12.785748 0.000000
v 0.000000 8.710810 0.000000
v 0.000000 12.785748 0.000000
v -0.561403 11.545194 -1.360300
v -0.000000 11.545194 -1.430304
v 0.561403 11.545194 -1.360300
v 1.067852 11.545194 -1.157140
v 1.469773 11.545194 -0.840712
v 1.727822 11.545194 -0.441988
v 1.816739 11.545194 -0.000000
v 1.727822 11.545194 0.441988
v 1.469772 11.545194 0.840711
v 1.067852 11.545194 1.157139
v 0.561403 11.545194 1.360299
v -0.000000 11.545194 1.430303
v -0.561403 11.545194 1.360299
v -1.067852 11.545194 1.157139
v -1.469773 11.545194 0.840711
v -1.727822 11.545194 0.441988
v -1.816740 11.545194 -0.000000
v -1.727822 11.545194 -0.441988
v -1.469773 11.545194 -0.840711
v -1.067853 11.545194 -1.157140
v -3.568232 9.549168 2.490282
v -4.194706 9.549168 1.309219
v -4.410579 9.549168 0.000000
v -4.194706 9.549168 -1.309218
v -3.568232 9.549168 -2.490279
v -2.592471 9.549168 -3.427579
v -1.362943 9.549168 -4.029361
v 0.000000 9.549168 -4.236720
v 1.362944 9.549168 -4.029361
v 2.592472 9.549168 -3.427579
v 3.568234 9.549168 -2.490281
v 4.194708 9.549168 -1.309218
v 4.410578 9.549168 0.000000
v 4.194706 9.549168 1.309218
v 3.568231 9.549168 2.490281
v 2.592471 9.549168 3.427578
v 1.362943 9.549168 4.029360
v 0.000000 9.549168 4.236718
v -1.362943 9.549168 4.029360
v -2.592470 9.549168 3.427579
vt 0.146019 0.145876
vt 0.190266 0.095052
vt 0.299998 0.222256
vt 0.283078 0.239190
vt 0.116376 0.205828
vt 0.272446 0.259274
vt 0.103045 0.271366
vt 0.268534 0.281659
vt 0.106848 0.338644
vt 0.271521 0.305411
vt 0.127671 0.403584
vt 0.281295 0.329269
vt 0.164338 0.462032
vt 0.297268 0.351660
vt 0.214534 0.510083
vt 0.318292 0.370925
vt 0.618530 0.412998
vt 0.467868 0.332847
vt 0.641828 0.348905
vt 0.478550 0.309381
vt 0.648208 0.281821
vt 0.482445 0.285761
vt 0.637399 0.215820
vt 0.479395 0.263243
vt 0.610077 0.154776
vt 0.469541 0.242766
vt 0.567811 0.102293
vt 0.453283 0.225196
vt 0.513070 0.061622
vt 0.431444 0.211490
vt 0.449227 0.035454
vt 0.405421 0.202586
vt 0.380440 0.025616
vt 0.377111 0.199166
vt 0.311325 0.032809
vt 0.348691 0.201498
vt 0.246527 0.056510
vt 0.322345 0.209397
vt 0.579648 0.469997
vt 0.527647 0.516088
vt 0.429301 0.373054
vt 0.451048 0.354609
vt 0.174186 0.665297
vt 0.145486 0.680818
vt 0.086363 0.599016
vt 0.143088 0.568950
vt 0.122659 0.705108
vt 0.041389 0.645742
vt 0.107942 0.735781
vt 0.012552 0.704565
vt 0.102755 0.769831
vt 0.002694 0.769735
vt 0.107877 0.803892
vt 0.012427 0.834925
vt 0.122535 0.834592
vt 0.041152 0.893802
vt 0.145316 0.858926
vt 0.086036 0.940615
vt 0.173986 0.874502
vt 0.142703 0.970789
vt 0.205726 0.879762
vt 0.205628 0.981388
vt 0.237476 0.874563
vt 0.268574 0.970910
vt 0.266176 0.859042
vt 0.325299 0.940844
vt 0.289003 0.834752
vt 0.370273 0.894118
vt 0.303720 0.804079
vt 0.399110 0.835295
vt 0.308906 0.770029
vt 0.408968 0.770125
vt 0.303785 0.735968
vt 0.399235 0.704935
vt 0.289127 0.705268
vt 0.370510 0.646058
vt 0.266346 0.680934
vt 0.325626 0.599245
vt 0.237676 0.665358
vt 0.268959 0.569071
vt 0.205936 0.660098
vt 0.206034 0.558472
vt 0.205831 0.769930
vt 0.496255 0.661694
vt 0.499774 0.694554
vt 0.415270 0.708327
vt 0.410104 0.665099
vt 0.872024 0.737522
vt 0.950709 0.767018
vt 0.858874 0.764354
vt 0.930612 0.804130
vt 0.842970 0.787085
vt 0.905791 0.837212
vt 0.824593 0.805949
vt 0.876931 0.866091
vt 0.803372 0.821545
vt 0.844343 0.890686
vt 0.778662 0.834157
vt 0.808150 0.910701
vt 0.750272 0.843476
vt 0.768619 0.925480
vt 0.718866 0.848923
vt 0.726480 0.934202
vt 0.685838 0.850052
vt 0.682992 0.936222
vt 0.652956 0.846746
vt 0.639731 0.931337
vt 0.621978 0.839239
vt 0.598260 0.919854
vt 0.594264 0.828067
vt 0.559790 0.902498
vt 0.570440 0.813852
vt 0.524996 0.880139
vt 0.550295 0.796890
vt 0.494102 0.853447
vt 0.533202 0.776855
vt 0.467210 0.822727
vt 0.518832 0.753123
vt 0.444626 0.788079
vt 0.507481 0.725483
vt 0.427022 0.749723
vt 0.881756 0.707169
vt 0.887435 0.674613
vt 0.973174 0.683695
vt 0.965167 0.726488
vt 0.807598 0.369029
vt 0.771579 0.349137
vt 0.848369 0.237384
vt 0.743076 0.318306
vt 0.724880 0.279554
vt 0.718772 0.236673
vt 0.725350 0.193862
vt 0.743970 0.155312
vt 0.772809 0.124795
vt 0.809044 0.105299
vt 0.849129 0.098732
vt 0.889139 0.105738
vt 0.925158 0.125630
vt 0.953661 0.156461
vt 0.971857 0.195213
vt 0.977965 0.238094
vt 0.971387 0.280905
vt 0.952768 0.319455
vt 0.923929 0.349972
vt 0.887693 0.369468
vt 0.847609 0.376034
vn 0.362277 -0.923906 -0.123095
vn 0.305424 -0.923504 -0.232069
vn 0.773020 0.150713 -0.616218
vn 0.934753 0.123131 -0.333281
vn 0.219474 -0.923044 -0.315944
vn 0.542913 0.182303 -0.819763
vn 0.114367 -0.922701 -0.368162
vn 0.277922 0.206026 -0.938250
vn -0.000000 -0.922576 -0.385815
vn -0.000000 0.214686 -0.976683
vn -0.114367 -0.922701 -0.368162
vn -0.277922 0.206026 -0.938250
vn -0.219474 -0.923044 -0.315944
vn -0.542913 0.182303 -0.819763
vn -0.305424 -0.923504 -0.232069
vn -0.773021 0.150713 -0.616218
vn -0.362277 -0.923906 -0.123095
vn -0.934752 0.123131 -0.333282
vn -0.382229 -0.924067 -0.000000
vn -0.993699 0.112079 0.000000
vn -0.362277 -0.923906 0.123095
vn -0.934752 0.123131 0.333282
vn -0.305424 -0.923504 0.232069
vn -0.773020 0.150713 0.616219
vn -0.219474 -0.923044 0.315944
vn -0.542913 0.182303 0.819763
vn -0.114366 -0.922701 0.368162
vn -0.277921 0.206026 0.938250
vn 0.000000 -0.922576 0.385815
vn 0.000000 0.214686 0.976683
vn 0.114366 -0.922701 0.368162
vn 0.277921 0.206026 0.938250
vn 0.219474 -0.923044 0.315944
vn 0.542913 0.182303 0.819763
vn 0.305424 -0.923504 0.232069
vn 0.773020 0.150713 0.616219
vn 0.362277 -0.923907 0.123095
vn 0.934752 0.123131 0.333282
vn 0.382230 -0.924067 0.000000
vn 0.993699 0.112079 0.000000
vn 0.000000 -1.000000 0.000000
vn 0.000000 -1.000000 0.000000
vn 0.000000 -1.000000 0.000000
vn 0.000000 -1.000000 -0.000000
vn 0.000000 -1.000000 0.000000
vn 0.000000 -1.000000 0.000000
vn 0.000000 -1.000000 0.000000
vn 0.000000 -1.000000 0.000000
vn 0.000000 -1.000000 -0.000000
vn 0.000000 -1.000000 0.000000
vn 0.000000 -1.000000 0.000000
vn 0.000000 -1.000000 -0.000000
vn 0.000000 -1.000000 -0.000000
vn 0.000000 -1.000000 0.000000
vn 0.000000 -1.000000 -0.000000
vn 0.000000 -1.000000 0.000000
vn 0.000000 -1.000000 -0.000000
vn 0.000000 -1.000000 0.000000
vn 0.000000 -1.000000 0.000000
vn 0.000000 -1.000000 -0.000000
vn 0.000000 -1.000000 0.000000
vn 0.000000 1.000000 0.000000
vn 0.000000 1.000000 0.000000
vn 0.000000 1.000000 0.000000
vn 0.000000 1.000000 0.000000
vn 0.000000 1.000000 0.000000
vn 0.000000 1.000000 0.000000
vn 0.000000 1.000000 0.000000
vn 0.000000 1.000000 0.000000
vn 0.000000 1.000000 0.000000
vn 0.000000 1.000000 0.000000
vn 0.000000 1.000000 0.000000
vn 0.000000 1.000000 0.000000
vn 0.000000 1.000000 0.000000
vn 0.000000 1.000000 0.000000
vn 0.000000 1.000000 0.000000
vn 0.000000 1.000000 0.000000
vn 0.000000 1.000000 0.000000
vn 0.000000 1.000000 0.000000
vn 0.000000 1.000000 0.000000
vn 0.000000 1.000000 0.000000
vn 0.000000 1.000000 0.000000
vn -0.000000 0.628245 -0.778016
vn -0.218400 0.628342 -0.746651
vn -0.227153 -0.529474 -0.817348
vn -0.000000 -0.538255 -0.842782
vn 0.218400 0.628342 -0.746651
vn 0.227153 -0.529474 -0.817348
vn 0.425705 0.628737 -0.650742
vn 0.455648 -0.504543 -0.733363
vn 0.604730 0.629543 -0.487829
vn 0.672940 -0.469172 -0.571865
vn 0.730156 0.630493 -0.263344
vn 0.841205 -0.436041 -0.319755
vn 0.775835 0.630936 0.000000
vn 0.906540 -0.422121 0.000001
vn 0.730156 0.630493 0.263345
vn 0.841204 -0.436040 0.319756
vn 0.604730 0.629543 0.487829
vn 0.672940 -0.469172 0.571865
vn 0.425705 0.628737 0.650742
vn 0.455648 -0.504543 0.733363
vn 0.218400 0.628342 0.746651
vn 0.227153 -0.529474 0.817348
vn 0.000000 0.628245 0.778016
vn 0.000000 -0.538255 0.842782
vn -0.218400 0.628342 0.746651
vn -0.227153 -0.529474 0.817348
vn -0.425705 0.628737 0.650742
vn -0.455648 -0.504543 0.733363
vn -0.604730 0.629543 0.487829
vn -0.672940 -0.469172 0.571865
vn -0.730156 0.630493 0.263344
vn -0.841204 -0.436041 0.319756
vn -0.775835 0.630936 -0.000000
vn -0.906540 -0.422120 0.000000
vn -0.730156 0.630493 -0.263345
vn -0.841204 -0.436040 -0.319756
vn -0.604730 0.629543 -0.487829
vn -0.672940 -0.469172 -0.571865
vn -0.425705 0.628737 -0.650742
vn -0.455648 -0.504543 -0.733363
s 1
g Lamp_remodel:pCylinder2
usemtl lambert3SG
f 35/96/83 36/97/84 107/98/85 108/99/86
f 36/97/84 37/100/87 106/101/88 107/98/85
f 37/100/87 38/102/89 105/103/90 106/101/88
f 38/102/89 39/104/91 104/105/92 105/103/90
f 39/104/91 40/106/93 103/107/94 104/105/92
f 40/106/93 41/108/95 102/109/96 103/107/94
f 41/108/95 42/110/97 101/111/98 102/109/96
f 42/110/97 43/112/99 100/113/100 101/111/98
f 43/112/99 44/114/101 99/115/102 100/113/100
f 44/114/101 45/116/103 98/117/104 99/115/102
f 45/116/103 46/118/105 97/119/106 98/117/104
f 46/118/105 47/120/107 116/121/108 97/119/106
f 47/120/107 48/122/109 115/123/110 116/121/108
f 48/122/109 49/124/111 114/125/112 115/123/110
f 49/124/111 50/126/113 113/127/114 114/125/112
f 50/126/113 51/128/115 112/129/116 113/127/114
f 51/128/115 52/130/117 111/131/118 112/129/116
f 52/130/117 53/132/119 110/133/120 111/131/118
f 53/132/119 54/134/121 109/135/122 110/133/120
f 54/134/121 35/96/83 108/99/86 109/135/122
s 2
f 36/97/123 35/96/124 75/136/125
f 37/100/126 36/97/123 75/136/125
f 38/102/127 37/100/126 75/136/125
f 39/104/128 38/102/127 75/136/125
f 40/106/129 39/104/128 75/136/125
f 41/108/130 40/106/129 75/136/125
f 42/110/131 41/108/130 75/136/125
f 43/112/132 42/110/131 75/136/125
f 44/114/133 43/112/132 75/136/125
f 45/116/134 44/114/133 75/136/125
f 46/118/135 45/116/134 75/136/125
f 47/120/136 46/118/135 75/136/125
f 48/122/137 47/120/136 75/136/125
f 49/124/138 48/122/137 75/136/125
f 50/126/139 49/124/138 75/136/125
f 51/128/140 50/126/139 75/136/125
f 52/130/141 51/128/140 75/136/125
f 53/132/142 52/130/141 75/136/125
f 54/134/143 53/132/142 75/136/125
f 35/96/124 54/134/143 75/136/125
s 3
f 55/179/144 56/180/145 76/181/146
f 56/180/145 57/182/147 76/181/146
f 57/182/147 58/183/148 76/181/146
f 58/183/148 59/184/149 76/181/146
f 59/184/149 60/185/150 76/181/146
f 60/185/150 61/186/151 76/181/146
f 61/186/151 62/187/152 76/181/146
f 62/187/152 63/188/153 76/181/146
f 63/188/153 64/189/154 76/181/146
f 64/189/154 65/190/155 76/181/146
f 65/190/155 66/191/156 76/181/146
f 66/191/156 67/192/157 76/181/146
f 67/192/157 68/193/158 76/181/146
f 68/193/158 69/194/159 76/181/146
f 69/194/159 70/195/160 76/181/146
f 70/195/160 71/196/161 76/181/146
f 71/196/161 72/197/162 76/181/146
f 72/197/162 73/198/163 76/181/146
f 73/198/163 74/199/164 76/181/146
f 74/199/164 55/179/144 76/181/146
s 1
f 78/137/165 77/138/166 60/139/167 59/140/168
f 79/175/169 78/176/165 59/177/168 58/178/170
f 80/141/171 79/175/169 58/178/170 57/142/172
f 81/143/173 80/141/171 57/142/172 56/144/174
f 82/145/175 81/143/173 56/144/174 55/146/176
f 83/147/177 82/145/175 55/146/176 74/148/178
f 84/149/179 83/147/177 74/148/178 73/150/180
f 85/151/181 84/149/179 73/150/180 72/152/182
f 86/153/183 85/151/181 72/152/182 71/154/184
f 87/155/185 86/153/183 71/154/184 70/156/186
f 88/157/187 87/155/185 70/156/186 69/158/188
f 89/159/189 88/157/187 69/158/188 68/160/190
f 90/161/191 89/159/189 68/160/190 67/162/192
f 91/163/193 90/161/191 67/162/192 66/164/194
f 92/165/195 91/163/193 66/164/194 65/166/196
f 93/167/197 92/165/195 65/166/196 64/168/198
f 94/169/199 93/167/197 64/168/198 63/170/200
f 95/171/201 94/169/199 63/170/200 62/172/202
f 96/173/203 95/171/201 62/172/202 61/174/204
f 77/138/166 96/173/203 61/174/204 60/139/167
f 98/54/104 97/55/106 91/56/193 92/57/195
f 99/58/102 98/54/104 92/57/195 93/59/197
f 100/60/100 99/58/102 93/59/197 94/61/199
f 101/62/98 100/60/100 94/61/199 95/63/201
f 102/64/96 101/62/98 95/63/201 96/65/203
f 103/66/94 102/64/96 96/65/203 77/67/166
f 104/68/92 103/66/94 77/67/166 78/69/165
f 105/92/90 104/93/92 78/94/165 79/95/169
f 106/70/88 105/92/90 79/95/169 80/71/171
f 107/72/85 106/70/88 80/71/171 81/73/173
f 108/74/86 107/72/85 81/73/173 82/75/175
f 109/76/122 108/74/86 82/75/175 83/77/177
f 110/78/120 109/76/122 83/77/177 84/79/179
f 111/80/118 110/78/120 84/79/179 85/81/181
f 112/82/116 111/80/118 85/81/181 86/83/183
f 113/84/114 112/82/116 86/83/183 87/85/185
f 114/86/112 113/84/114 87/85/185 88/87/187
f 115/88/110 114/86/112 88/87/187 89/89/189
f 116/90/108 115/88/110 89/89/189 90/91/191
f 97/55/106 116/90/108 90/91/191 91/56/193
